<svg id="icons" xmlns="http://www.w3.org/2000/svg" viewBox="0 0 48 48"><title>color-swatches</title><g id="color-swatches"><polygon points="27.4 27.38 43.92 27.38 43.92 39.87 39.83 43.9 27.4 43.9 27.4 27.38" fill="#fff"/><path d="M45,44.51a.52.52,0,0,1-.52.52.52.52,0,0,1-.53-.52.53.53,0,0,1,.53-.53A.52.52,0,0,1,45,44.51Z" fill="#252b33"/><polygon points="3 27.38 19.52 27.38 19.52 39.87 15.42 43.9 3 43.9 3 27.38" fill="#6d7c8c"/><path d="M20.59,44.51a.52.52,0,1,1-1,0,.52.52,0,1,1,1,0Z" fill="#252b33"/><polygon points="27.4 2.97 43.92 2.97 43.92 15.46 39.83 19.49 27.4 19.49 27.4 2.97" fill="#b1bfc9"/><path d="M45,20.1a.52.52,0,0,1-.52.52.52.52,0,1,1,0-1A.52.52,0,0,1,45,20.1Z" fill="#252b33"/><polygon points="3 2.97 19.52 2.97 19.52 15.46 15.42 19.49 3 19.49 3 2.97" fill="#fc3768"/><path d="M20.59,20.1a.52.52,0,1,1-.52-.52A.52.52,0,0,1,20.59,20.1Z" fill="none"/><polygon points="27.4 27.38 43.92 27.38 43.92 39.87 39.83 43.9 27.4 43.9 27.4 27.38" fill="none" stroke="#252b33" stroke-linecap="round" stroke-linejoin="round" stroke-width="2"/><path d="M45,44.51a.52.52,0,0,1-.52.52.52.52,0,0,1-.53-.52.53.53,0,0,1,.53-.53A.52.52,0,0,1,45,44.51Z" fill="none" stroke="#252b33" stroke-miterlimit="10" stroke-width="2"/><polygon points="3 27.38 19.52 27.38 19.52 39.87 15.42 43.9 3 43.9 3 27.38" fill="none" stroke="#252b33" stroke-linecap="round" stroke-linejoin="round" stroke-width="2"/><path d="M20.59,44.51a.52.52,0,1,1-1,0,.52.52,0,1,1,1,0Z" fill="none" stroke="#252b33" stroke-miterlimit="10" stroke-width="2"/><polygon points="27.4 2.97 43.92 2.97 43.92 15.46 39.83 19.49 27.4 19.49 27.4 2.97" fill="none" stroke="#252b33" stroke-linecap="round" stroke-linejoin="round" stroke-width="2"/><path d="M45,20.1a.52.52,0,0,1-.52.52.52.52,0,1,1,0-1A.52.52,0,0,1,45,20.1Z" fill="none" stroke="#252b33" stroke-miterlimit="10" stroke-width="2"/><polygon points="3 2.97 19.52 2.97 19.52 15.46 15.42 19.49 3 19.49 3 2.97" fill="none" stroke="#252b33" stroke-linecap="round" stroke-linejoin="round" stroke-width="2"/><path d="M20.59,20.1a.52.52,0,1,1-.52-.52A.52.52,0,0,1,20.59,20.1Z" fill="#252b33" stroke="#252b33" stroke-linecap="round" stroke-linejoin="round" stroke-width="2"/></g></svg>