<svg id="icons" xmlns="http://www.w3.org/2000/svg" viewBox="0 0 48 48"><title>easel</title><g id="easel"><line x1="24" y1="2" x2="37" y2="46" fill="none" stroke="#252b33" stroke-linecap="round" stroke-linejoin="round" stroke-width="2"/><line x1="24" y1="2" x2="11" y2="46" fill="none" stroke="#252b33" stroke-linecap="round" stroke-linejoin="round" stroke-width="2"/><line x1="24" y1="46" x2="24" y2="2" fill="none" stroke="#252b33" stroke-linecap="round" stroke-linejoin="round" stroke-width="2"/><line x1="13.5" y1="40" x2="34.5" y2="40" fill="none" stroke="#252b33" stroke-linecap="round" stroke-linejoin="round" stroke-width="2"/><path d="M6.13,27H41.87A1.13,1.13,0,0,1,43,28.13v2.62A2.25,2.25,0,0,1,40.75,33H7.25A2.25,2.25,0,0,1,5,30.75V28.13A1.13,1.13,0,0,1,6.13,27Z" fill="#b1bfc9"/><rect x="8" y="6" width="32" height="24" fill="#fff"/><rect x="8" y="6" width="32" height="24" fill="none" stroke="#252b33" stroke-linecap="round" stroke-linejoin="round" stroke-width="2"/><path d="M20,4h8a1,1,0,0,1,1,1V8a0,0,0,0,1,0,0H19a0,0,0,0,1,0,0V5A1,1,0,0,1,20,4Z" fill="#fc3768"/></g></svg>