<svg id="icons" xmlns="http://www.w3.org/2000/svg" viewBox="0 0 48 48"><title>eraser</title><g id="eraser"><g id="fill"><path d="M38.81,21.36,24.41,35.5H20.07l-8-7.57a3.07,3.07,0,0,1,0-4.34L16.68,19l9.9-9.89Z" fill="#fff"/><path d="M26.58,9.13l7.23-7.24a3.08,3.08,0,0,1,4.34,0l8,8a3.07,3.07,0,0,1,0,4.34l-7.29,7.17" fill="#b1bfc9"/><polygon points="38.87 21.42 29.11 31.13 16.9 19.26 26.58 9.13 38.87 21.42" fill="#fc3768"/></g><g id="outline"><path d="M20.07,35.5l-8-7.57a3.07,3.07,0,0,1,0-4.34L33.81,1.89a3.08,3.08,0,0,1,4.34,0l8,8a3.07,3.07,0,0,1,0,4.34L24.41,35.5Z" fill="none" stroke="#252b33" stroke-linecap="round" stroke-linejoin="round" stroke-width="2"/><line x1="26.58" y1="9.13" x2="38.87" y2="21.42" fill="none" stroke="#252b33" stroke-miterlimit="10" stroke-width="2"/><line x1="16.09" y1="18.44" x2="28.38" y2="30.73" fill="none" stroke="#252b33" stroke-miterlimit="10" stroke-width="2"/><line x1="13.78" y1="35.5" x2="1" y2="35.5" fill="none" stroke="#252b33" stroke-linecap="round" stroke-linejoin="round" stroke-width="2"/><line x1="13.78" y1="47" x2="1" y2="47" fill="none" stroke="#252b33" stroke-linecap="round" stroke-linejoin="round" stroke-width="2"/><line x1="24" y1="41.25" x2="6.11" y2="41.25" fill="none" stroke="#252b33" stroke-linecap="round" stroke-linejoin="round" stroke-width="2"/></g></g></svg>