<svg id="icons" xmlns="http://www.w3.org/2000/svg" viewBox="0 0 48 48"><title>eyedropper</title><g id="eyedropper"><g id="fill"><path d="M12.5,43.64c0-1.57-3-5.14-3-5.14s-3,3.57-3,5.14a2.93,2.93,0,0,0,3,2.86A2.93,2.93,0,0,0,12.5,43.64Z" fill="#6d7c8c"/></g><path d="M25.35,10.18,10.66,24.87a5.26,5.26,0,0,0-1,6L8,32.58A1.71,1.71,0,0,0,10.42,35l1.67-1.67a5.26,5.26,0,0,0,6-1L32.82,17.65Z" fill="#b1bfc9"/><path d="M16.35,19.18l-5.69,5.69a5.26,5.26,0,0,0-1,6L8,32.58A1.71,1.71,0,0,0,10.42,35l1.67-1.67a5.26,5.26,0,0,0,6-1l5.69-5.69Z" fill="#6d7c8c"/><path d="M25.35,10.18,10.66,24.87a5.26,5.26,0,0,0-1,6L8,32.58A1.71,1.71,0,0,0,10.42,35l1.67-1.67a5.26,5.26,0,0,0,6-1L32.82,17.65" fill="none" stroke="#252b33" stroke-linecap="round" stroke-linejoin="round" stroke-width="2"/><path d="M28.88,6.83,27.3,5.25A2.23,2.23,0,0,0,24.15,8.4L34.6,18.85a2.23,2.23,0,0,0,3.15-3.15l-1.58-1.58L40,10.31A5.16,5.16,0,1,0,32.69,3L28.88,6.83" fill="#fc3768"/><path d="M28.88,6.83,27.3,5.25A2.23,2.23,0,0,0,24.15,8.4L34.6,18.85a2.23,2.23,0,0,0,3.15-3.15l-1.58-1.58L40,10.31A5.16,5.16,0,1,0,32.69,3L28.88,6.83" fill="none" stroke="#252b33" stroke-linecap="round" stroke-linejoin="round" stroke-width="2"/></g></svg>