<svg id="icons" xmlns="http://www.w3.org/2000/svg" viewBox="0 0 48 48"><title>paint-roller</title><g id="paint-roller"><path d="M23,28.5h4a2,2,0,0,1,2,2v15a1,1,0,0,1-1,1H23a2,2,0,0,1-2-2v-14A2,2,0,0,1,23,28.5Z" fill="#6d7c8c"/><line x1="45" y1="8.5" x2="43" y2="8.5" fill="none" stroke="#252b33" stroke-linecap="round" stroke-linejoin="round" stroke-width="2"/><path d="M8,8.5H5a2,2,0,0,0-2,2v9a2,2,0,0,0,2,2H23a2,2,0,0,1,2,2v4" fill="none" stroke="#252b33" stroke-linecap="round" stroke-linejoin="round" stroke-width="2"/><path d="M24,28.5h2a3,3,0,0,1,3,3v15a0,0,0,0,1,0,0H21a0,0,0,0,1,0,0v-15A3,3,0,0,1,24,28.5Z" fill="none" stroke="#252b33" stroke-linecap="round" stroke-linejoin="round" stroke-width="2"/><rect x="7" y="1.5" width="36" height="14" rx="4" ry="4" fill="#fc3768"/><line x1="24" y1="37.5" x2="26" y2="37.5" fill="none" stroke="#252b33" stroke-miterlimit="10" stroke-width="2"/><line x1="24" y1="33.5" x2="26" y2="33.5" fill="none" stroke="#252b33" stroke-miterlimit="10" stroke-width="2"/><line x1="24" y1="41.5" x2="26" y2="41.5" fill="none" stroke="#252b33" stroke-miterlimit="10" stroke-width="2"/></g></svg>