<svg id="icons" xmlns="http://www.w3.org/2000/svg" viewBox="0 0 48 48"><title>paint-sprayer</title><g id="paint-sprayer"><path d="M37.44,10.9H32.9a.92.92,0,1,1,0-1.84h4.54a.92.92,0,1,1,0,1.84Z" fill="#252b33"/><path d="M30.76,7.12a.91.91,0,0,1-.65-.27.92.92,0,0,1,0-1.3l4.27-4.28a.92.92,0,0,1,1.31,1.3L31.41,6.85A.92.92,0,0,1,30.76,7.12Z" fill="#252b33"/><path d="M35,19a.92.92,0,0,1-.65-.27l-4.27-4.28a.92.92,0,1,1,1.3-1.3l4.28,4.28A.92.92,0,0,1,35,19Z" fill="#252b33"/><polyline points="17.01 13.64 17.01 7.39 22.39 7.39 22.39 13.64" fill="#6d7c8c"/><path d="M22.39,14.56a.92.92,0,0,1-.92-.92V8.31H17.93v5.33a.92.92,0,0,1-1.84,0V7.39A.92.92,0,0,1,17,6.47h5.38a.92.92,0,0,1,.92.92v6.25A.92.92,0,0,1,22.39,14.56Z" fill="#252b33"/><path d="M10.56,21.18c0-4.16,3.72-7.52,8.31-7.52h1.66c4.59,0,8.31,3.36,8.31,7.52" fill="#fff"/><path d="M28.84,22.1a.92.92,0,0,1-.92-.92c0-3.64-3.32-6.6-7.39-6.6H18.87c-4.07,0-7.39,3-7.39,6.6a.92.92,0,1,1-1.84,0c0-4.66,4.14-8.44,9.23-8.44h1.66c5.09,0,9.23,3.78,9.23,8.44A.92.92,0,0,1,28.84,22.1Z" fill="#252b33"/><rect x="10.56" y="21.36" width="18.27" height="24.72" fill="#b1bfc9"/><polyline points="28.65 40.71 17.91 40.71 17.91 26.73 28.65 26.73" fill="#fc3768"/><path d="M28.65,41.63H17.91a.92.92,0,0,1-.92-.92v-14a.92.92,0,0,1,.92-.92H28.65a.92.92,0,1,1,0,1.84H18.83V39.79h9.82a.92.92,0,0,1,0,1.84Z" fill="#252b33"/><path d="M28.48,36.43H21.31a.92.92,0,0,1,0-1.84h7.17a.92.92,0,0,1,0,1.84Z" fill="#252b33"/><path d="M28.48,32.85h-4.3a.92.92,0,0,1,0-1.84h4.3a.92.92,0,0,1,0,1.84Z" fill="#252b33"/><path d="M28.84,47H10.56a.92.92,0,0,1-.92-.92V21.36a.92.92,0,0,1,.92-.92H28.84a.92.92,0,0,1,.92.92V46.08A.92.92,0,0,1,28.84,47ZM11.48,45.16H27.92V22.28H11.48Z" fill="#252b33"/></g></svg>